# xmcd CD database file
#
# Track frame offsets:
#	183
#	68603
#	95478
#	108963
#	131850
#	144135
#
# Disc length: 2235 seconds
#
# Revision: 7
# Processed by: cddbd v1.5.2PL0 Copyright (c) Steve Scherf et al.
# Submitted via: CDex 1.51
#
DISCID=4b08b906
DTITLE=String Quartets  - Bela Bartók  - Quatuor Végh   [CD 2-3]
DYEAR=1972
DGENRE=Classique
TTITLE0=String Quartet N°3 (1927), Sz.85 - I. Moderato - II. Allegro - Ricapitulazione I. Moderato - Coda. Allegro molto
TTITLE1=String Quartet N°4 (1928), Sz.91 - I. Allegro
TTITLE2=String Quartet N°4 (1928), Sz.91 - II. Prestissimo, con sordino
TTITLE3=String Quartet N°4 (1928), Sz.91 - III. Non troppo lento
TTITLE4=String Quartet N°4 (1928), Sz.91 - IV. Allegretto pizzicato
TTITLE5=String Quartet N°4 (1928), Sz.91 - V. Allegro molto
EXTD=Quatuor Végh.\nCopyright 1972 Astrée - Auvidis YEAR: 1972
EXTT0=
EXTT1=
EXTT2=
EXTT3=
EXTT4=
EXTT5=
PLAYORDER=
